<svg xmlns="http://www.w3.org/2000/svg" viewBox="0 0 500 500"><g id="freepik--speech-bubble--inject-63"><circle cx="155.24" cy="68.52" r="41.85" style="fill:#f5f5f5"></circle><path d="M201.27,96.38a12.15,12.15,0,0,0-1.17.44,5.54,5.54,0,0,0-2.41,2.32,5.25,5.25,0,0,0-.65,2.2,4.62,4.62,0,0,0,.6,2.54,5,5,0,0,0,9.35-1.1,4.63,4.63,0,0,0,0-2.61,5.25,5.25,0,0,0-1.15-2,5.59,5.59,0,0,0-2.88-1.7c-.78-.17-1.24-.11-1.24-.16a1.06,1.06,0,0,1,.33,0,1.32,1.32,0,0,1,.4,0,2.71,2.71,0,0,1,.54,0,5.65,5.65,0,0,1,4.31,3.75,4.89,4.89,0,0,1,0,2.79,5.7,5.7,0,0,1-1.61,2.65,5,5,0,0,1-6.23.73,5.73,5.73,0,0,1-2.17-2.2,4.85,4.85,0,0,1-.61-2.73,5.38,5.38,0,0,1,.73-2.32A5.53,5.53,0,0,1,200,96.68a2.94,2.94,0,0,1,.52-.18,1.77,1.77,0,0,1,.39-.09Q201.27,96.35,201.27,96.38Z" style="fill:#263238"></path><path d="M197.5,69.5s0-.24,0-.69,0-1.13-.08-2c0-.44,0-.94,0-1.48s-.15-1.13-.23-1.77-.18-1.32-.28-2.06a7.63,7.63,0,0,0-.22-1.12c-.09-.39-.19-.78-.29-1.19a40.06,40.06,0,0,0-4.43-11.29,42.19,42.19,0,0,0-10.45-12.15l-1.79-1.39c-.63-.43-1.3-.82-1.95-1.25l-1-.63a7.44,7.44,0,0,0-1-.59L173.5,30.8c-.36-.19-.72-.38-1.1-.55l-1.15-.45-2.35-.91c-.8-.28-1.64-.47-2.46-.71l-1.25-.35-.64-.17-.64-.11a38.2,38.2,0,0,0-5.3-.72c-.91,0-1.82-.16-2.74-.16l-2.78.08c-.47,0-.94,0-1.4.07l-1.41.18c-.94.14-1.89.23-2.83.41a42.32,42.32,0,0,0-5.63,1.53l-1.41.48-.7.25L139,30l-2.74,1.25c-.89.47-1.76,1-2.64,1.51-.44.27-.9.49-1.32.8l-1.25.9a47.31,47.31,0,0,0-4.85,4l-2.18,2.31-.54.58c-.18.2-.33.42-.5.63l-1,1.26-1,1.28-.87,1.36-.87,1.37-.44.69c-.13.24-.25.49-.37.73-.5,1-1,1.95-1.49,2.93s-.8,2-1.2,3.09a44.82,44.82,0,0,0-2.43,13.2,45.11,45.11,0,0,0,1.9,13.29l1.08,3.13c.46,1,.91,2,1.37,3l.34.74.41.71.82,1.4.81,1.4.94,1.31L122,94.1l.47.65.52.6,2.09,2.39a47.8,47.8,0,0,0,4.68,4.14l1.22,1c.41.32.86.57,1.28.85.87.54,1.71,1.12,2.59,1.61l2.68,1.37.67.34.69.27,1.39.54a44.11,44.11,0,0,0,5.56,1.75c.94.22,1.89.34,2.82.52l1.4.24c.46.07.93.08,1.4.12l2.77.2c.92,0,1.84,0,2.75-.06a37.3,37.3,0,0,0,5.32-.51l.65-.08.64-.15,1.26-.29c.84-.21,1.68-.37,2.49-.62l2.38-.81,1.18-.4,1.11-.51,2.21-1a8.12,8.12,0,0,0,1.05-.56l1-.59c.67-.39,1.35-.76,2-1.17l1.84-1.32A41.92,41.92,0,0,0,191,90.85c.32-.5.64-1,.94-1.48l.76-1.5.74-1.45c.12-.23.25-.46.35-.7l.28-.72,1.07-2.72c.31-.87.5-1.74.75-2.54q.17-.6.33-1.17a7.85,7.85,0,0,0,.26-1.12l.36-2c.11-.64.23-1.22.3-1.76s.08-1,.11-1.47c.07-.87.13-1.54.16-2s.07-.68.07-.68,0,.23,0,.68-.06,1.13-.12,2c0,.45-.06.94-.09,1.48s-.18,1.13-.28,1.77-.23,1.32-.35,2a7.79,7.79,0,0,1-.25,1.12l-.33,1.18c-.23.81-.42,1.68-.73,2.56l-1.06,2.73c-.09.24-.18.48-.28.73s-.23.47-.34.71L192.9,88l-.76,1.52c-.29.49-.62,1-.93,1.49a42.14,42.14,0,0,1-10.94,11.82l-1.86,1.34c-.65.41-1.33.78-2,1.18l-1,.6a8.24,8.24,0,0,1-1.06.56l-2.22,1c-.37.17-.74.35-1.12.51l-1.18.41-2.4.82c-.81.26-1.66.41-2.51.63l-1.27.3-.64.15-.66.08a39.24,39.24,0,0,1-5.36.53c-.92,0-1.84.09-2.76.06l-2.8-.2c-.47,0-1,0-1.42-.12l-1.4-.24c-.94-.17-1.9-.3-2.85-.51a46,46,0,0,1-5.61-1.76l-1.4-.55c-.23-.09-.47-.17-.7-.27l-.67-.34-2.71-1.38c-.89-.5-1.73-1.08-2.61-1.62-.43-.29-.89-.53-1.29-.85l-1.23-1A46.38,46.38,0,0,1,124.78,98l-2.11-2.41-.53-.61-.47-.65-1-1.32-1-1.32-.83-1.41-.82-1.42-.41-.71-.35-.75-1.38-3c-.36-1-.73-2.1-1.09-3.16A45.17,45.17,0,0,1,113,67.81a45.3,45.3,0,0,1,2.45-13.32c.41-1.05.82-2.08,1.22-3.12l1.5-3c.12-.24.24-.49.37-.73L119,47l.88-1.39.88-1.38,1-1.28,1-1.28c.16-.21.32-.43.5-.63l.55-.59,2.2-2.32a48.18,48.18,0,0,1,4.89-4l1.27-.9a15,15,0,0,1,1.32-.8c.9-.51,1.77-1.06,2.67-1.52l2.77-1.27.68-.31.71-.25,1.42-.48a45.11,45.11,0,0,1,5.68-1.54c1-.18,1.91-.27,2.86-.4l1.42-.19c.47,0,.94,0,1.41-.06l2.81-.08c.92,0,1.84.11,2.75.16a40.15,40.15,0,0,1,5.34.74l.66.12c.21,0,.42.11.63.17l1.26.35c.83.25,1.68.44,2.48.72l2.36.92,1.17.46,1.1.55,2.18,1.11a8.13,8.13,0,0,1,1,.6l1,.64c.66.43,1.33.83,2,1.26l1.8,1.41a42.11,42.11,0,0,1,10.47,12.25,40,40,0,0,1,4.39,11.37c.1.41.19.8.28,1.19a6.58,6.58,0,0,1,.21,1.13c.09.74.18,1.43.26,2.07s.18,1.23.21,1.77,0,1,0,1.48c0,.88,0,1.55,0,2S197.5,69.5,197.5,69.5Z" style="fill:#263238"></path><path d="M150.76,48.94,152,68.76a3.22,3.22,0,0,0,3,3h0a3.23,3.23,0,0,0,3.39-2.86L160.63,49a2.53,2.53,0,0,0-2.55-2.8l-4.83.06A2.54,2.54,0,0,0,150.76,48.94Z" style="fill:#263238"></path><path d="M160.29,82.91a4.84,4.84,0,1,1-3.07-6.11A4.83,4.83,0,0,1,160.29,82.91Z" style="fill:#263238"></path></g><g id="freepik--Hair--inject-63"><path d="M141.48,361.25a5.35,5.35,0,0,1-1,.51,11.82,11.82,0,0,1-1.23.48,17.25,17.25,0,0,1-1.69.52,25.84,25.84,0,0,1-4.51.81,27.47,27.47,0,0,1-11.1-1.3,26.57,26.57,0,0,1-4.21-1.83,17.23,17.23,0,0,1-1.51-.9,10.2,10.2,0,0,1-1.1-.76c-.58-.44-.89-.69-.86-.72s1.34.89,3.64,2.05a29.57,29.57,0,0,0,4.18,1.7A29.13,29.13,0,0,0,133,363.09a29.92,29.92,0,0,0,4.46-.68C140,361.81,141.44,361.16,141.48,361.25Z" style="fill:#263238"></path><path d="M144.67,363.2a3.1,3.1,0,0,1-.47.77,15.88,15.88,0,0,1-1.56,1.92,23.24,23.24,0,0,1-14.34,7.17,18,18,0,0,1-2.47.1,3.66,3.66,0,0,1-.9-.09c0-.1,1.29-.08,3.32-.38a25.49,25.49,0,0,0,14.13-7.06C143.84,364.18,144.6,363.14,144.67,363.2Z" style="fill:#263238"></path><path d="M135.7,386.5a21.84,21.84,0,0,1,7.93-9.63c.1.12-2.08,1.9-4.26,4.57S135.84,386.58,135.7,386.5Z" style="fill:#263238"></path><path d="M381.72,299.92a3.49,3.49,0,0,1-.76.46,6.72,6.72,0,0,1-.95.43,11.31,11.31,0,0,1-1.3.47,17.4,17.4,0,0,1-3.54.71,18.8,18.8,0,0,1-8.7-1.27,18.23,18.23,0,0,1-3.18-1.69,11.67,11.67,0,0,1-1.12-.83,6.31,6.31,0,0,1-.78-.69c-.41-.4-.62-.63-.6-.66s1,.81,2.69,1.87a20.4,20.4,0,0,0,3.17,1.55,21.14,21.14,0,0,0,4.17,1.09,21.92,21.92,0,0,0,4.31.15,19.1,19.1,0,0,0,3.47-.58C380.55,300.41,381.67,299.82,381.72,299.92Z" style="fill:#263238"></path><path d="M178.42,154.91a53.55,53.55,0,0,0,6.06-4.6c3.07-2.88,4.78-5.9,4.93-5.8a7.51,7.51,0,0,1-1.06,2,23.69,23.69,0,0,1-7.88,7.46A7.24,7.24,0,0,1,178.42,154.91Z" style="fill:#263238"></path><path d="M186.92,158.66a21.09,21.09,0,0,1,1.49-4.49,21.62,21.62,0,0,1,2-4.3,21.8,21.8,0,0,1-1.49,4.49A21.62,21.62,0,0,1,186.92,158.66Z" style="fill:#263238"></path><path d="M334.66,170.9a5.77,5.77,0,0,1-2.2-.44,13.4,13.4,0,0,1-4.65-2.76,13.66,13.66,0,0,1-3.2-4.38,6,6,0,0,1-.64-2.15,20.5,20.5,0,0,1,1,2,15.16,15.16,0,0,0,3.21,4.15,15.42,15.42,0,0,0,4.43,2.81C333.85,170.63,334.68,170.81,334.66,170.9Z" style="fill:#263238"></path><path d="M335.28,164.34a4.22,4.22,0,0,1-1.79-.19,12.23,12.23,0,0,1-7.1-4.85,4.47,4.47,0,0,1-.83-1.6,16.17,16.17,0,0,0,9.72,6.64Z" style="fill:#263238"></path><path d="M376.11,318.17a6.26,6.26,0,0,1-1.73,1,20.68,20.68,0,0,1-4.61,1.44,20.42,20.42,0,0,1-4.82.31,5.5,5.5,0,0,1-2-.31,49.73,49.73,0,0,0,6.7-.51A51.2,51.2,0,0,0,376.11,318.17Z" style="fill:#263238"></path><path d="M378.79,326.4a111,111,0,0,1-10.2,11.34,56.54,56.54,0,0,1,4.91-5.84A59.29,59.29,0,0,1,378.79,326.4Z" style="fill:#263238"></path><path d="M382.79,444.86a3.81,3.81,0,0,1-1.05.15,10.89,10.89,0,0,1-1.23.05,15.68,15.68,0,0,1-1.64,0,24.8,24.8,0,0,1-4.23-.63,28.33,28.33,0,0,1-4.95-1.71,28.84,28.84,0,0,1-4.51-2.66A25.77,25.77,0,0,1,362,437.2c-.43-.42-.77-.85-1.09-1.22a9.49,9.49,0,0,1-.76-1,4.88,4.88,0,0,1-.57-.89c.08-.06,1,1.16,2.68,2.83a28.51,28.51,0,0,0,3.24,2.69,27.91,27.91,0,0,0,9.3,4.3,28,28,0,0,0,4.14.72C381.29,444.88,382.78,444.76,382.79,444.86Z" style="fill:#263238"></path></g><g id="freepik--Character--inject-63"><path d="M122,188.25S73.85,275.34,78.74,301.3c2.87,15.25,17.42,24.62,28.18,23,6.6-1,91.21-39.41,91.21-39.41l-15.65-43.39L127.82,264.2l17.31-71.62Z" style="fill:#ffbe9c"></path><path d="M145.13,192.58s6.56-8.89,7.41-14.18.63-7.83,0-13.12-1.22-15.86.55-20.31a6.41,6.41,0,0,0-1.4-7.19l.63-2.12-7.19-2.11s.64-2.54-1.69-3.18c-1.58-.43-10-1-15.25-1.25a6.11,6.11,0,0,0-5.94,3.64c-2.82,6.39-8.12,18.8-8.43,22.37-.43,4.86,8.46,19.89,8.25,22.85s2.33,8-1.48,12.48Z" style="fill:#ffbe9c"></path><path d="M121.82,153.27s.26-.44.71-1.27a18.3,18.3,0,0,0,1.5-3.74l0-.17.17.07a11.25,11.25,0,0,0,5.91.7l.2,0,0,.19a6.71,6.71,0,0,0,4.41,4.89,2.85,2.85,0,0,0,1.76,0,1.45,1.45,0,0,0,.87-1.38,13.2,13.2,0,0,0-.23-2c-.11-.68-.24-1.37-.39-2.06a32,32,0,0,0-1.51-5.16,5.26,5.26,0,0,0-1.43-2,5.57,5.57,0,0,0-2.14-1l-4.44-1.08a10.24,10.24,0,0,0-3.85-.51,5.49,5.49,0,0,0-2.79,1.45,10.63,10.63,0,0,0-1.57,1.89c-.74,1.14-1.1,1.8-1.14,1.78a2,2,0,0,1,.22-.51c.16-.32.4-.79.75-1.38a10.64,10.64,0,0,1,1.53-2,5.83,5.83,0,0,1,2.93-1.61,10.31,10.31,0,0,1,4,.46l4.46,1a6.16,6.16,0,0,1,2.34,1.06,5.82,5.82,0,0,1,1.57,2.16,32,32,0,0,1,1.56,5.26c.15.7.28,1.4.39,2.09a12,12,0,0,1,.23,2.1,2.14,2.14,0,0,1-.31,1.09,1.81,1.81,0,0,1-.87.73,3.33,3.33,0,0,1-2.09.06,7.14,7.14,0,0,1-4.7-5.28l.24.17a11.5,11.5,0,0,1-6.1-.84l.22-.11a16.13,16.13,0,0,1-1.67,3.74,9.56,9.56,0,0,1-.6.91C121.92,153.19,121.84,153.28,121.82,153.27Z" style="fill:#ff996c"></path><path d="M137.05,142c0-.08,1,.31,2.6.53A12.62,12.62,0,0,0,151,138.27c1.08-1.23,1.54-2.15,1.62-2.1s-.05.26-.26.68a10.94,10.94,0,0,1-1.07,1.66,12.08,12.08,0,0,1-11.73,4.4,10,10,0,0,1-1.9-.55C137.26,142.19,137,142.06,137.05,142Z" style="fill:#ff996c"></path><path d="M137.89,165.08a8.32,8.32,0,0,0,2.19-3.2,12.74,12.74,0,0,0,.74-4.16c.05-1.61-.09-3.39,0-5.28a13.41,13.41,0,0,1,3.4-8.93,7.21,7.21,0,0,1,2.42-1.68,4,4,0,0,1,.76-.26.69.69,0,0,1,.27,0,10.16,10.16,0,0,0-3.18,2.24,13.62,13.62,0,0,0-3.15,8.69c-.06,1.86.07,3.65,0,5.29a12.57,12.57,0,0,1-.88,4.28,7,7,0,0,1-1.64,2.44A2.75,2.75,0,0,1,137.89,165.08Z" style="fill:#ff996c"></path><path d="M125,159.92a2.45,2.45,0,0,1,.79,0,13.41,13.41,0,0,1,2.11.27,21.3,21.3,0,0,1,12,7,14.62,14.62,0,0,1,1.27,1.7c.27.43.4.67.37.69s-.71-.85-1.92-2.15a24.78,24.78,0,0,0-5.39-4.29,24.49,24.49,0,0,0-6.39-2.58C126.14,160.12,125,160,125,159.92Z" style="fill:#ff996c"></path><path d="M131,139.89a24.48,24.48,0,0,1,1.39-3.64l.07-.16.18,0a13.51,13.51,0,0,0,5,.14,14.31,14.31,0,0,0,5.78-2.32c1.32-.93,2-1.69,2.06-1.63s-.12.23-.41.58a11.56,11.56,0,0,1-1.43,1.35,13.18,13.18,0,0,1-5.91,2.53,12.77,12.77,0,0,1-5.2-.23l.25-.12A23.54,23.54,0,0,1,131,139.89Z" style="fill:#ff996c"></path><path d="M151.76,136.54a25.92,25.92,0,0,0,3-14.88,15.27,15.27,0,0,1,3.5,4.33,13.84,13.84,0,0,0,2.19-7,10.64,10.64,0,0,1,2.47,7.14,31.79,31.79,0,0,1-1.21,7.61,15,15,0,0,0,4.62-2.76,13.62,13.62,0,0,1-17.92,9.72" style="fill:#263238"></path><path d="M141.9,143.55a28.5,28.5,0,0,0-16.7,13.37l5.49-2.4a24.08,24.08,0,0,0-1.76,10.24l4.67-4.38c.37-.34.89-.71,1.34-.48a1.28,1.28,0,0,1,.51.82c.48,1.59,1,3.19,1.45,4.78a74.29,74.29,0,0,1,2.3-12.14,25.1,25.1,0,0,1,6.05-10.65" style="fill:#263238"></path><path d="M169.51,137.63s-.21.2-.63.49a15.41,15.41,0,0,1-1.89,1.06,23.43,23.43,0,0,1-14,2.08,15.23,15.23,0,0,1-2.11-.48c-.49-.14-.76-.24-.75-.28s1.12.19,2.91.39a27.51,27.51,0,0,0,7-.11,27.8,27.8,0,0,0,6.76-1.93C168.49,138.13,169.46,137.55,169.51,137.63Z" style="fill:#263238"></path><path d="M126,158a11.56,11.56,0,0,0-1.93-3.21,11.86,11.86,0,0,0-3.13-2.06c0-.06.46-.06,1.15.17a6.22,6.22,0,0,1,3.79,3.94C126.12,157.52,126.1,158,126,158Z" style="fill:#ff996c"></path><path d="M149.25,162.36a11.16,11.16,0,0,0-4.48-.13,11.5,11.5,0,0,0-4,2.06s.23-.5.88-1.07a7.12,7.12,0,0,1,6.34-1.45C148.83,162,149.27,162.3,149.25,162.36Z" style="fill:#ff996c"></path><path d="M158.82,127.37s.05.26,0,.71a10.18,10.18,0,0,1-.28,1.9,15.16,15.16,0,0,1-7.6,9.8,10.84,10.84,0,0,1-1.77.75,2.2,2.2,0,0,1-.69.16c0-.09.91-.43,2.28-1.24a16.78,16.78,0,0,0,4.61-4.08,17,17,0,0,0,2.81-5.48C158.64,128.36,158.73,127.36,158.82,127.37Z" style="fill:#455a64"></path><path d="M134,158a7.8,7.8,0,0,1,.32-2.61,17,17,0,0,1,7.18-10.18,7.67,7.67,0,0,1,2.35-1.16c0,.08-.86.53-2.14,1.47a19.25,19.25,0,0,0-4.34,4.4,19.45,19.45,0,0,0-2.7,5.57C134.2,157,134.07,158,134,158Z" style="fill:#455a64"></path><path d="M132.25,150.7a6.54,6.54,0,0,1,1.39-1.39,25.44,25.44,0,0,1,3.9-2.72,25.94,25.94,0,0,1,4.32-2,6.34,6.34,0,0,1,1.92-.49c.05.16-2.8,1.09-6,2.91S132.36,150.83,132.25,150.7Z" style="fill:#455a64"></path><path d="M159.9,136a15,15,0,0,1-9.62,3.62c0-.16,2.3-.44,4.95-1.45S159.81,135.86,159.9,136Z" style="fill:#455a64"></path><path d="M184.6,240.73s8.88-8.39,14.3-9.44c11.92-2.31,30-5.24,30-5.24l56.34-3.14s34-1.87,41.33,2.24c9,5,14.46,63.66,14.46,63.66l-8.63,68.89,7.49,112.7h-154L189,383.8Z" style="fill:#FEBD57"></path><path d="M196.25,232.22s-58.82,25.88-59.77,26.27,24.72,52.1,24.72,52.1l41.36-15.67Z" style="fill:#FEBD57"></path><path d="M316.57,223l43.07-36.56,33.46,41.39-53,64.27s-16.7-.67-20.71-21.76S316.57,223,316.57,223Z" style="fill:#FEBD57"></path><path d="M338.1,290.24a2.17,2.17,0,0,1-.58.11,9.41,9.41,0,0,1-1.7,0,13,13,0,0,1-5.93-1.9,19.36,19.36,0,0,1-6.41-6.65A46.7,46.7,0,0,1,319,271.47a54.74,54.74,0,0,1-2.13-11.13,53,53,0,0,1,.06-9.24,50.37,50.37,0,0,1,1-6.16l.42-1.64a2.67,2.67,0,0,1,.19-.56,3.1,3.1,0,0,1-.08.59q-.13.64-.33,1.65c-.23,1.45-.62,3.54-.8,6.15a57.67,57.67,0,0,0,.06,9.17,56,56,0,0,0,2.15,11,47.87,47.87,0,0,0,4.42,10.28,19.18,19.18,0,0,0,6.19,6.58,13.31,13.31,0,0,0,5.75,2C337.28,290.34,338.09,290.18,338.1,290.24Z" style="fill:#263238"></path><path d="M318.32,221.42c.15.07-1,2.5-1.62,5.69s-.65,5.86-.81,5.87a19.09,19.09,0,0,1,2.43-11.56Z" style="fill:#263238"></path><path d="M315.6,225.08c.15.08-1.32,2.62-2.25,6.08a64.56,64.56,0,0,0-1.14,6.38,5.47,5.47,0,0,1-.1-1.93,21.43,21.43,0,0,1,.74-4.59,20.86,20.86,0,0,1,1.7-4.33A6,6,0,0,1,315.6,225.08Z" style="fill:#263238"></path><path d="M187.4,337.59a5,5,0,0,1-.09-.86c0-.61-.09-1.42-.15-2.45-.1-2.19-.25-5.27-.42-9-.32-7.63-.66-18.18-1-29.84s-.63-22.16-.85-29.85c-.11-3.78-.19-6.86-.26-9,0-1,0-1.85,0-2.46a4.39,4.39,0,0,1,0-.86,4.74,4.74,0,0,1,.09.85q0,.91.15,2.46c.1,2.19.24,5.26.42,9,.31,7.64.66,18.19,1,29.85s.63,22.16.85,29.84c.1,3.78.19,6.86.25,9,0,1,0,1.85,0,2.46A5.16,5.16,0,0,1,187.4,337.59Z" style="fill:#263238"></path><polygon points="187.82 346.44 334.17 343.64 332.61 356.14 333.73 377.51 188.83 379.26 187.82 346.44" style="fill:#e0e0e0"></polygon><polygon points="185.88 470.4 188.83 379.26 333.73 377.51 339.9 470.4 185.88 470.4" style="fill:#455a64"></polygon><path d="M296.44,368a3.46,3.46,0,0,1-.63.41l-1.85,1.1c-1.62.94-4,2.26-6.93,3.86-5.88,3.18-14.13,7.36-23.46,11.53s-17.95,7.51-24.25,9.77c-3.15,1.12-5.71,2-7.49,2.57l-2.06.65a5,5,0,0,1-.72.2,3.52,3.52,0,0,1,.69-.3l2-.74c1.76-.63,4.3-1.56,7.43-2.73,6.26-2.34,14.85-5.74,24.17-9.89s17.58-8.29,23.5-11.39c3-1.55,5.35-2.82,7-3.71l1.9-1A4.21,4.21,0,0,1,296.44,368Z" style="fill:#263238"></path><path d="M300.6,301.63a2.07,2.07,0,0,1-.11.49q-.17.54-.39,1.35c-.35,1.17-.9,2.85-1.6,4.92-1.4,4.15-3.48,9.82-6.06,16s-5.17,11.62-7.14,15.53c-1,1.95-1.81,3.51-2.4,4.59l-.68,1.22a2.18,2.18,0,0,1-.28.42,2.24,2.24,0,0,1,.18-.46c.17-.35.36-.77.6-1.28.57-1.17,1.33-2.74,2.25-4.66,1.88-3.94,4.41-9.41,7-15.56s4.71-11.78,6.2-15.89c.71-2,1.3-3.64,1.74-4.87.2-.52.36-1,.49-1.32A1.77,1.77,0,0,1,300.6,301.63Z" style="fill:#263238"></path><g style="opacity:0.30000000000000004"><path d="M233.63,396.49c11.06,2.32,23-.11,33-5.38s18.45-12.57,26-21a316.39,316.39,0,0,1-29.79,14.8A294.77,294.77,0,0,1,233.63,396.49Z"></path></g><path d="M136.48,258.49s1.67,4.37,2.66,6.56c7.17,15.84,14.73,31.13,22.06,45.54l4.49-1.7-24.34-52.53Z" style="fill:#455a64"></path><polygon points="354.75 190.62 388.88 232.97 393.1 227.86 359.64 186.47 354.75 190.62" style="fill:#455a64"></polygon><path d="M342.78,239.46a8,8,0,0,1-.69,1.27c-.48.8-1.15,2-1.93,3.44a68.51,68.51,0,0,0-7.62,24.65c-.18,1.66-.29,3-.34,3.93a7.05,7.05,0,0,1-.15,1.44,7.92,7.92,0,0,1-.06-1.45c0-.93.05-2.29.19-3.95a62,62,0,0,1,2.5-12.81,61.25,61.25,0,0,1,5.16-12c.82-1.45,1.54-2.6,2.08-3.37A7.75,7.75,0,0,1,342.78,239.46Z" style="fill:#263238"></path><path d="M296.77,102c-3.92-6.26-7.55-12.69-14.2-15.35-6-2.41-12.88-.91-19.29-2-4.67-.75-9,2.8-12.7,5.76-4.62,3.72-1.79,1.8-4.91,1.2-2.73-.52-4.34,4.27-6.18,6.35-3.8,4.3-18,2.18-21.19,6.92-2.62,3.85-2,4.37-3.38,8.83-1.49,4.84-5.87,8.09-9.54,11.59s-7,8.46-5.57,13.32c1.28,4.27,5.9,6.91,7.11,11.21.88,3.13-.25,6.43-.59,9.66s.62,7.19,3.71,8.21l35.1,12.64c11.93,6.12,24.25,12.35,37.61,13.5s28.19-4,34.54-15.82a7.72,7.72,0,0,1-5-2.76,12.9,12.9,0,0,0,7.78-7.93c-2.62,1.19-5.82-.92-6.73-3.66s-.11-5.73,1-8.39,2.53-5.24,3-8.09a12.25,12.25,0,0,0-7.15-12.72c5.21-3.44,6.34-11.68,2.24-16.39-1.91-2.2-4.61-3.54-6.9-5.34A25,25,0,0,1,302,109.3" style="fill:#263238"></path><path d="M289.67,176.07c3.77-8.86,7.5-17.79,9.68-27.16s2.76-19.28.21-28.56c-.39-1.41-3.9-10.92-5.36-10.91-1,0,.87,8.77.27,9.62-5.74,8.13-8,18.31-8.07,28.26a130.81,130.81,0,0,0,3.27,28.75" style="fill:#263238"></path><path d="M251,247.45c14.89,1,34.58-24.52,34.58-24.52l8.28-83.35c2.89-24-8.64-45.6-32.67-47.83l-2.23-.07a43.15,43.15,0,0,0-44.33,38.18c-2.38,20.78-4.75,43.76-5,54.95-.49,23.15,22.53,27.53,22.53,27.53s-.34,5.35-.87,12.13c-1.17,15.22,13.71,23,19.71,23Z" style="fill:#ffbe9c"></path><path d="M232.12,212.34s14.55,1.35,30.43-7.89c0,0-7.92,16.58-30.94,13.72Z" style="fill:#ff996c"></path><path d="M223,146.93a3.3,3.3,0,0,0,3.07,3.44,3.16,3.16,0,0,0,3.51-2.87,3.31,3.31,0,0,0-3.07-3.44A3.16,3.16,0,0,0,223,146.93Z" style="fill:#263238"></path><path d="M219.21,139.63c.4.44,3-1.32,6.52-1.19s6.1,2,6.5,1.57c.2-.19-.19-1-1.3-1.84a9.11,9.11,0,0,0-5.19-1.8,8.72,8.72,0,0,0-5.2,1.49C219.42,138.66,219,139.43,219.21,139.63Z" style="fill:#263238"></path><path d="M255.84,149.2a3.31,3.31,0,0,0,3.08,3.44,3.17,3.17,0,0,0,3.51-2.87,3.31,3.31,0,0,0-3.07-3.44A3.18,3.18,0,0,0,255.84,149.2Z" style="fill:#263238"></path><path d="M253.28,142.25c.39.45,3-1.32,6.52-1.19s6.1,2,6.5,1.57c.19-.18-.19-1-1.31-1.84a9.11,9.11,0,0,0-5.18-1.8,8.73,8.73,0,0,0-5.21,1.49C253.48,141.28,253.08,142.05,253.28,142.25Z" style="fill:#263238"></path><path d="M240.31,169.14c0-.2-2.17-.66-5.74-1.24-.9-.12-1.75-.33-1.89-1a4.63,4.63,0,0,1,.7-2.67c.93-2.16,1.9-4.44,2.92-6.82,4.06-9.72,7-17.72,6.65-17.88s-4,7.59-8.07,17.3l-2.81,6.87c-.38,1-1,2.17-.59,3.55a2.28,2.28,0,0,0,1.44,1.38,6.49,6.49,0,0,0,1.54.27C238.06,169.25,240.29,169.34,240.31,169.14Z" style="fill:#263238"></path><path d="M251.11,132.41c.36,1,3.91.48,8.09,1s7.56,1.59,8.11.72c.24-.42-.35-1.32-1.72-2.25a14.17,14.17,0,0,0-12.33-1.28C251.73,131.19,251,132,251.11,132.41Z" style="fill:#263238"></path><path d="M231.15,127.84c-.9-.63-3.6.8-7,1.58s-6.49.84-7,1.81c-.2.46.43,1.16,1.86,1.63a11.55,11.55,0,0,0,6,.07,11.27,11.27,0,0,0,5.28-2.8C231.33,129.06,231.56,128.16,231.15,127.84Z" style="fill:#263238"></path><path d="M291.35,156.65c.4-.16,16.06-4.16,15,11.64s-16.69,11.5-16.69,11S291.35,156.65,291.35,156.65Z" style="fill:#ffbe9c"></path><path d="M294.9,173.66c.08,0,.27.21.72.46a2.75,2.75,0,0,0,2.05.18c1.71-.51,3.29-3.06,3.56-5.91a9.26,9.26,0,0,0-.51-4,3.21,3.21,0,0,0-1.94-2.25,1.4,1.4,0,0,0-1.67.65c-.24.43-.16.75-.25.77s-.32-.29-.15-.93a1.8,1.8,0,0,1,.69-.95,2.11,2.11,0,0,1,1.55-.3,3.88,3.88,0,0,1,2.71,2.64,9.31,9.31,0,0,1,.67,4.47c-.32,3.17-2.14,6.05-4.47,6.55a3,3,0,0,1-2.49-.58C294.91,174.05,294.85,173.69,294.9,173.66Z" style="fill:#ff996c"></path><path d="M226.77,104.46c-2.45-1.6,5.84-9.31,12.33-11.68,9.82-3.6,24.51-5.17,33.08-2,10.31,3.77,18.68,9.67,23.25,19.66s5.73,21.31,4.6,32.24c-.34,3.33-.95,6.79-2.95,9.48-2.46,3.33-6.86,5.21-7,10a6.65,6.65,0,0,1-2,4.7c-3.12,2.85-6.44-.3-7.84-3.32-3-6.44-2.85-13.85-2.62-21,.16-5.06.34-10.22,2.12-15,1-2.57,1.23-2.75,2.05-5.38s-.89-7-2.82-8.94l-.53-.54c-4.18-4.25-7.54-8-13.3-6.43-9.13,2.48-24.67,6.05-28.41,2.73-5.38-4.77-6.53-7.7-6.53-7.7Z" style="fill:#263238"></path><path d="M268.91,145.35c-.09.12.59.71,1.65.92s1.92-.05,1.89-.2-.83-.15-1.77-.35S269,145.21,268.91,145.35Z" style="fill:#ff996c"></path><path d="M269.36,147.26c-.05.14.77.6,1.83,1s2,.64,2,.49-.76-.59-1.82-1S269.42,147.11,269.36,147.26Z" style="fill:#ff996c"></path><path d="M238.85,121a4.19,4.19,0,0,0,1.45,1.1,11.52,11.52,0,0,0,8.61,1,3.93,3.93,0,0,0,1.66-.75A14.83,14.83,0,0,1,238.85,121Z" style="fill:#ff996c"></path><path d="M238.9,118.24a12.28,12.28,0,0,0,11.68,2.11c0-.18-2.73.52-6-.1S239,118.08,238.9,118.24Z" style="fill:#ff996c"></path><path d="M235.51,177.25l8.9-2.73c1.27-.39,2.69-.77,3.88-.17a3.93,3.93,0,0,1,1.82,2.66c.26,1.07.29,2.2.55,3.28.33,1.4,1,3.07,0,4.14a3.52,3.52,0,0,1-2.31.86l-8.62,1a6.68,6.68,0,0,1-3.3-.16,4.49,4.49,0,0,1-2.42-2.93,13.43,13.43,0,0,1-.38-3.9,3.3,3.3,0,0,1,.29-1.65,1.15,1.15,0,0,1,1.43-.56" style="fill:#ff996c"></path><path d="M248.35,175.87a2.5,2.5,0,0,0-.6-1.9,1.87,1.87,0,0,0-1.47-.2,25.38,25.38,0,0,0-3.71,1l-8.16,2.64,0,.32a2.42,2.42,0,0,0,.59,2.5,3.19,3.19,0,0,0,2.35.84,9.45,9.45,0,0,0,2.54.09c2.29-.69,4.62-1.22,6.92-1.91a2.65,2.65,0,0,0,1.3-.9A5,5,0,0,0,248.35,175.87Z" style="fill:#fff"></path><path d="M235.78,183.47a3,3,0,0,0,.55,2.11c.38.34.7.78,1.21.75,1.27-.07,2.94.3,4.19.06,2.78-.55,6-1.25,8.76-1.8l.4-.42c.41-.74-.83-2.81-1.4-3.43a3.37,3.37,0,0,0-2.26-1,10.12,10.12,0,0,0-2.51.23l-7,1.24a2.48,2.48,0,0,0-1.4.55A2.6,2.6,0,0,0,235.78,183.47Z" style="fill:#fff"></path><path d="M236.44,186.15a43.23,43.23,0,0,0,5.92-.19c1.82-.22,3.95-.66,6.33-1.2a3.92,3.92,0,0,0,1.53-.59,1.69,1.69,0,0,0,.5-1.36,8,8,0,0,0-.34-1.89c-.17-.66-.33-1.32-.5-2a9.16,9.16,0,0,0-1.45-3.59,2.77,2.77,0,0,0-2.94-1c-1.11.22-2.24.64-3.28.93l-2.9.87c-3.55,1-5.77,1.61-5.81,1.47s2.09-1,5.58-2.18l2.86-1c1.05-.33,2.09-.77,3.37-1.06a4.49,4.49,0,0,1,2.09,0,3.84,3.84,0,0,1,1.84,1.27,9.88,9.88,0,0,1,1.65,4c.17.69.34,1.38.51,2a8.31,8.31,0,0,1,.34,2.1,2.61,2.61,0,0,1-.9,2.15,4.58,4.58,0,0,1-1.94.75,50,50,0,0,1-6.47,1C238.68,187,236.39,186.27,236.44,186.15Z" style="fill:#263238"></path><path d="M246.89,179.24a13.21,13.21,0,0,1-5.07,1.77,13.52,13.52,0,0,1-5.38.15c0-.16,2.4-.12,5.28-.66S246.83,179.09,246.89,179.24Z" style="fill:#263238"></path><path d="M241.18,95.48A15.61,15.61,0,0,1,239.33,93a15.16,15.16,0,0,1-1.76-2.57,10.74,10.74,0,0,1,3.61,5.08Z" style="fill:#455a64"></path><path d="M244.54,93.55A16,16,0,0,1,243.46,91a15.17,15.17,0,0,1-1.09-2.57,5.13,5.13,0,0,1,1.57,2.37A5.21,5.21,0,0,1,244.54,93.55Z" style="fill:#455a64"></path><path d="M247.86,91.88c-.14,0-.47-.86-.74-2a4.64,4.64,0,0,1-.23-2.12c.14,0,.47.86.74,2A4.48,4.48,0,0,1,247.86,91.88Z" style="fill:#455a64"></path><path d="M237.57,97.33a7.23,7.23,0,0,1-3.51-4.92c.14,0,.68,1.2,1.64,2.54S237.67,97.21,237.57,97.33Z" style="fill:#455a64"></path><path d="M239.14,101.49a6.62,6.62,0,0,1-2.4-1A6.55,6.55,0,0,1,234.59,99a6.91,6.91,0,0,1,2.4,1A6.76,6.76,0,0,1,239.14,101.49Z" style="fill:#455a64"></path><path d="M241.79,100.58c-.09.11-1-.55-1.87-1.62s-1.33-2.09-1.2-2.16.77.8,1.61,1.83S241.89,100.47,241.79,100.58Z" style="fill:#455a64"></path><path d="M244.69,98.56c-.14.06-.56-.67-.95-1.61s-.59-1.76-.46-1.81.56.66.94,1.61S244.82,98.51,244.69,98.56Z" style="fill:#455a64"></path><path d="M247.83,96.72c-.14,0-.34-.76-.43-1.73s-.06-1.77.09-1.79.33.77.43,1.74S248,96.7,247.83,96.72Z" style="fill:#455a64"></path><path d="M251.35,95.84c-.15,0-.28-.82-.31-1.84s.08-1.85.22-1.85.28.82.3,1.84S251.49,95.83,251.35,95.84Z" style="fill:#455a64"></path><path d="M251.18,93.2a6,6,0,0,1,0-2.79,5.88,5.88,0,0,1,.85-2.65,10.77,10.77,0,0,1-.34,2.74A10.07,10.07,0,0,1,251.18,93.2Z" style="fill:#455a64"></path><path d="M253.71,92.67c-.14,0,0-.78.23-1.66s.59-1.55.73-1.5,0,.78-.23,1.65S253.85,92.71,253.71,92.67Z" style="fill:#455a64"></path><path d="M279.77,105.16a2.94,2.94,0,0,1-.85.46,13.08,13.08,0,0,1-2.5.81,19.81,19.81,0,0,1-8.61-.15,32.37,32.37,0,0,1-8-3.16c-1-.52-1.73-1-2.25-1.32a3.4,3.4,0,0,1-.77-.56c0-.07,1.23.59,3.19,1.56a37.42,37.42,0,0,0,8,3,21.15,21.15,0,0,0,8.43.29C278.49,105.68,279.73,105.07,279.77,105.16Z" style="fill:#455a64"></path><path d="M271.25,101.11a14.72,14.72,0,0,1-6.23-.63,14.5,14.5,0,0,1-5.62-2.73c.08-.14,2.48,1.31,5.77,2.23S271.25,100.94,271.25,101.11Z" style="fill:#455a64"></path><path d="M284.06,132.9a8,8,0,0,1-.44-2.38,26.92,26.92,0,0,1,.09-5.83,27.32,27.32,0,0,1,1.35-5.68,8.45,8.45,0,0,1,1-2.19,58.35,58.35,0,0,0-1.84,7.94A56.27,56.27,0,0,0,284.06,132.9Z" style="fill:#455a64"></path><path d="M292.22,133a7,7,0,0,1-1.47-1.7,22,22,0,0,1-2.55-4.79,22.45,22.45,0,0,1-1.29-5.28,7.29,7.29,0,0,1,0-2.24,43.86,43.86,0,0,0,1.81,7.33A43.91,43.91,0,0,0,292.22,133Z" style="fill:#455a64"></path><path d="M297,86.83a40.28,40.28,0,0,0,19.35-12.9A8.46,8.46,0,0,1,313.7,80a51.28,51.28,0,0,0,12-4.23A24.72,24.72,0,0,1,303,94.58" style="fill:#263238"></path><path d="M318.12,86.25a42,42,0,0,1-6.43,1.27,39.72,39.72,0,0,1-6.5.75A41.35,41.35,0,0,1,311.61,87,39.78,39.78,0,0,1,318.12,86.25Z" style="fill:#455a64"></path><path d="M312.66,83.79c0,.14-2,1-4.38,2.24s-4.27,2.43-4.35,2.3A15.42,15.42,0,0,1,308,85.57,15.26,15.26,0,0,1,312.66,83.79Z" style="fill:#455a64"></path><path d="M321.09,96.76a48.08,48.08,0,0,0-7.61-1.91,49.68,49.68,0,0,0-7.84-.14,7.77,7.77,0,0,1,2.28-.45,23.37,23.37,0,0,1,5.63.08A23.71,23.71,0,0,1,319,95.72,7.4,7.4,0,0,1,321.09,96.76Z" style="fill:#263238"></path><path d="M308.65,72.87a6.91,6.91,0,0,1-.18,2.1A23.06,23.06,0,0,1,307,79.82a22.47,22.47,0,0,1-2.49,4.42,6.86,6.86,0,0,1-1.38,1.59,63.16,63.16,0,0,0,3.39-6.21A59.22,59.22,0,0,0,308.65,72.87Z" style="fill:#263238"></path><path d="M310.07,102.48s-6.61-14.12-6.43-16.62-2.14-8.39-2.14-8.39l-1.79-1.26s-.35-2.32-3.75-3.93-8.22,1.43-8.22,1.43-4.82-1.43-6.25,2.86c0,0-3.93.36-5.18,2.68l-8,6.25v1.65s-2.32,1.75-2,3l.35,1.25a6.82,6.82,0,0,1-.39,2.68c-.5,1.25,5.93,7.68,7.36,8.4s2-1.26,2-1.26a170.11,170.11,0,0,1,10.57,14.93c1.57,2.65,8.36,10.08,10.15,9.73s5.18-.9,5.18-.9l8.57,5.72,13.58-21.08Z" style="fill:#ffbe9c"></path><path d="M275.09,90.68a27.18,27.18,0,0,0-.36,5.54,26.64,26.64,0,0,0,1.32,5.41,11.82,11.82,0,0,1-1-10.95Z" style="fill:#ff996c"></path><path d="M270.94,90.77c.16-.08.65,1.06,1.53,2.14a4,4,0,0,0,1.4,1c.42.18.72.22.72.3s-.31.16-.83,0a3.2,3.2,0,0,1-1.68-1.06,5.48,5.48,0,0,1-1-1.69C270.94,91.1,270.88,90.8,270.94,90.77Z" style="fill:#ff996c"></path><path d="M271.26,98.23c0-.15.95-.4,1.77-1.24s1.09-1.8,1.24-1.77.11,1.17-.87,2.14S271.25,98.37,271.26,98.23Z" style="fill:#ff996c"></path><path d="M280.75,76.68a3,3,0,0,1,1.59-.05,5.92,5.92,0,0,1,3.36,1.85,13.38,13.38,0,0,1,2.15,3.15,4.52,4.52,0,0,1,.6,1.46c-.07,0-.4-.47-.92-1.28a19.41,19.41,0,0,0-2.21-3A6.3,6.3,0,0,0,282.26,77,11.41,11.41,0,0,1,280.75,76.68Z" style="fill:#ff996c"></path><path d="M275.37,81.18a41.78,41.78,0,0,1-4.12,5.21,42.91,42.91,0,0,1-4.51,4.87,41,41,0,0,1,4.12-5.21A42.91,42.91,0,0,1,275.37,81.18Z" style="fill:#ff996c"></path><path d="M290.67,76.63c-.14.07-.67-.84-1.61-1.68s-1.89-1.29-1.84-1.43a3.18,3.18,0,0,1,2.19,1C290.44,75.49,290.8,76.59,290.67,76.63Z" style="fill:#ff996c"></path><path d="M300.92,82.37c-.18,0-.33-2-.83-4.27a22.39,22.39,0,0,0-1.56-4s.42.29.87,1a9.1,9.1,0,0,1,1.2,2.9A11.89,11.89,0,0,1,300.92,82.37Z" style="fill:#ff996c"></path><path d="M298.77,122.49a8.83,8.83,0,0,1,2.87,1.58,8.7,8.7,0,0,1,2.45,2.17,12.82,12.82,0,0,1-2.75-1.74A13.64,13.64,0,0,1,298.77,122.49Z" style="fill:#ff996c"></path><path d="M413.71,163.38c-4.87-8.21-17.7-12.47-32.95-21.86s-57.11-31.9-57.11-31.9h-8.91l-4.67,21.08s23.46,22.43,36.05,33.21l19.88,17-5.71,6.36,28.47,35.21L390,224c18.75-23.19,18.42-25,23.56-32.47C418.28,184.67,419.54,173.22,413.71,163.38Z" style="fill:#ffbe9c"></path><path d="M288.29,74c1,.38-3.07-7.31-2.81-11.22l-3.54,6.31-2.3-2.75c.46,3.07.81,6.2,2.64,8.7C282.28,75.08,284.07,72.49,288.29,74Z" style="fill:#263238"></path><path d="M289.66,65.47c.15.07-.71,1.8-1.06,4.11s-.11,4.22-.26,4.24a7.91,7.91,0,0,1-.26-4.32A8,8,0,0,1,289.66,65.47Z" style="fill:#263238"></path><path d="M290.86,70.51c.12.1-.42.94-1,2s-1.09,1.93-1.22,1.88a4,4,0,0,1,.77-2.15C290,71.15,290.76,70.42,290.86,70.51Z" style="fill:#263238"></path><path d="M276.07,71.71c.13-.08,1.07,1.26,2.51,2.62s2.82,2.26,2.75,2.39a7.35,7.35,0,0,1-3.1-2A7.26,7.26,0,0,1,276.07,71.71Z" style="fill:#263238"></path><path d="M279.28,70.24a15.6,15.6,0,0,1,1.15,3.29,15.47,15.47,0,0,1,.9,3.37,9.63,9.63,0,0,1-1.4-3.22A9.53,9.53,0,0,1,279.28,70.24Z" style="fill:#263238"></path></g><g id="freepik--Desk--inject-63"><path d="M461.69,470.4c0,.15-94.79.26-211.68.26s-211.7-.11-211.7-.26,94.77-.26,211.7-.26S461.69,470.26,461.69,470.4Z" style="fill:#263238"></path></g></svg>